<?xml version="1.0" standalone="no"?>
<!DOCTYPE svg PUBLIC "-//W3C//DTD SVG 1.1//EN" "http://www.w3.org/Graphics/SVG/1.1/DTD/svg11.dtd" >
<svg>
<metadata>
Created by FontForge 20090622 at Mon Aug 27 21:48:21 2018
 By deploy user
&#60; info@fontfont.de &#62; Copyright Ole Schaefer, 1999. Published by FontShop International for  FontFont Release 25, Fago Condensed is a trademark of FSI Fonts and Software GmbH.
</metadata>
<defs>
<font id="FagoCo-BoldItalic" horiz-adv-x="500" >
  <font-face 
    font-family="FagoCo"
    font-weight="700"
    font-style="italic"
    font-stretch="normal"
    units-per-em="1000"
    panose-1="0 0 0 0 0 0 0 0 0 0"
    ascent="800"
    descent="-200"
    x-height="530"
    cap-height="700"
    bbox="-139 -210 1167 935"
    underline-thickness="50"
    underline-position="-75"
    slope="-11"
    unicode-range="U+0020-U+FB02"
  />
<missing-glyph horiz-adv-x="260" 
 />
    <glyph glyph-name=".notdef" horiz-adv-x="260" 
 />
    <glyph glyph-name=".null" horiz-adv-x="0" 
 />
    <glyph glyph-name="nonmarkingreturn" horiz-adv-x="333" 
 />
    <glyph glyph-name="space" unicode=" " horiz-adv-x="260" 
 />
    <glyph glyph-name="exclam" unicode="!" horiz-adv-x="301" 
d="M347 700l-106 -460h-96l56 460h146zM256 58q0 -36 -24.5 -62t-60.5 -26t-61 26t-25 62t25 61.5t61 25.5t60.5 -25.5t24.5 -61.5z" />
    <glyph glyph-name="quotedbl" unicode="&#x22;" horiz-adv-x="463" 
d="M536 700l-74 -285h-106l27 285h153zM326 700l-74 -285h-106l27 285h153z" />
    <glyph glyph-name="numbersign" unicode="#" horiz-adv-x="620" 
d="M680 540l-27 -108h-97l-29 -164h100l-19 -108h-100l-28 -160h-120l28 160h-100l-28 -160h-120l28 160h-100l19 108h100l29 164h-100l19 108h100l28 160h120l-28 -160h100l28 160h120l-28 -160h105zM436 432h-100l-29 -164h100z" />
    <glyph glyph-name="dollar" unicode="$" horiz-adv-x="350" 
d="M409 631l-18 -101q-49 28 -90 28q-30 0 -46 -18.5t-16 -51.5q0 -11 1.5 -21t3 -17t6.5 -17l7 -14t9.5 -15.5t9.5 -15.5l33 -55q49 -81 49 -146q0 -160 -142 -184l-22 -123h-80l21 121q-24 3 -48.5 10t-36.5 13l-13 5l19 106q69 -30 107 -30q64 0 64 77q0 16 -6 34
t-11.5 27l-19.5 33l-42 70q-40 66 -40 129q0 79 40.5 125.5t112.5 56.5l22 123h80l-23 -125q17 -4 34.5 -10t25.5 -10z" />
    <glyph glyph-name="percent" unicode="%" horiz-adv-x="801" 
d="M812 216q0 -98 -46 -162t-136 -64q-67 0 -100 34.5t-33 108.5q0 97 46 162t136 65q133 0 133 -144zM722 710l-407 -720h-113l407 720h113zM427 566q0 -98 -46 -162t-136 -64q-67 0 -100 34.5t-33 108.5q0 97 46 162t136 65q133 0 133 -144zM705 229q0 32 -7 47t-26 15
q-31 0 -49 -59t-18 -106q0 -65 34 -65q29 0 47.5 60.5t18.5 107.5zM320 579q0 32 -7 47t-26 15q-31 0 -49 -59t-18 -106q0 -65 34 -65q29 0 47.5 60.5t18.5 107.5z" />
    <glyph glyph-name="ampersand" unicode="&#x26;" horiz-adv-x="788" 
d="M881 540l-20 -115h-85q-9 -71 -23.5 -128.5t-44.5 -117t-72.5 -99.5t-110 -65t-153.5 -25q-62 0 -112.5 15.5t-93.5 49t-66.5 94.5t-23.5 146q0 158 78 256.5t192 98.5q96 0 149.5 -48.5t53.5 -146.5q0 -213 -335 -229q9 -41 27 -68t43.5 -39t48.5 -16t53 -4q65 0 115 25
t82 70.5t51 102.5t27 128h-80l20 115h280zM421 453q0 99 -82 99q-58 0 -95 -65t-38 -172q215 20 215 138z" />
    <glyph glyph-name="quotesingle" unicode="'" horiz-adv-x="253" 
d="M326 700l-74 -285h-106l27 285h153z" />
    <glyph glyph-name="parenleft" unicode="(" horiz-adv-x="283" 
d="M436 810l-24 -33.5t-53.5 -89.5t-68 -136t-53.5 -164t-24 -183q0 -94 13.5 -182.5t26.5 -129.5l13 -42h-118q-8 16 -20 46t-32 125t-20 193q0 89 24.5 183.5t59.5 165t70.5 128.5t59.5 89l25 30h121z" />
    <glyph glyph-name="parenright" unicode=")" horiz-adv-x="283" 
d="M323 445q0 -90 -24.5 -185t-59.5 -165t-70 -127.5t-59 -87.5l-25 -30h-121q9 12 24 34.5t53.5 91t67.5 137t53 163.5t24 180q0 99 -13 187.5t-26 127.5l-13 39h118q8 -17 20 -47.5t31.5 -126t19.5 -191.5z" />
    <glyph glyph-name="asterisk" unicode="*" horiz-adv-x="449" 
d="M513 493l-63 -103l-95 85l25 -125h-121l24 125l-97 -85l-62 103l125 47l-125 46l62 103l97 -85l-24 126h121l-25 -126l95 85l63 -103l-127 -46z" />
    <glyph glyph-name="plus" unicode="+" horiz-adv-x="570" 
d="M586 400l-22 -120h-160l-30 -175h-130l30 175h-170l22 120h170l29 165h130l-29 -165h160z" />
    <glyph glyph-name="comma" unicode="," horiz-adv-x="286" 
d="M257 135l-111 -305h-100l71 305h140z" />
    <glyph glyph-name="hyphen" unicode="-" horiz-adv-x="450" 
d="M463 385l-20 -115h-340l20 115h340z" />
    <glyph glyph-name="period" unicode="." horiz-adv-x="301" 
d="M251 78q0 -36 -24.5 -62t-60.5 -26t-61 26t-25 62t25 61.5t61 25.5t60.5 -25.5t24.5 -61.5z" />
    <glyph glyph-name="slash" unicode="/" horiz-adv-x="272" 
d="M377 710l-247 -720h-112l247 720h112z" />
    <glyph glyph-name="zero" unicode="0" 
d="M524 366q0 -60 -17.5 -134.5t-45.5 -123.5q-39 -69 -90.5 -93.5t-117.5 -24.5q-78 0 -128 47t-50 154q0 64 17 137.5t49 125.5q70 116 205 116q75 0 126.5 -47.5t51.5 -156.5zM396 380q0 101 -61 101q-54 0 -83 -63q-20 -42 -35 -115t-15 -123q0 -99 62 -99q52 0 82 63
q20 43 35 114.5t15 121.5z" />
    <glyph glyph-name="one" unicode="1" horiz-adv-x="320" 
d="M349 560l-99 -560h-130l75 427l-118 -45l19 110l153 68h100z" />
    <glyph glyph-name="two" unicode="2" horiz-adv-x="384" 
d="M422 414q0 -48 -13 -87.5t-41 -72.5t-56.5 -56.5t-73.5 -53.5l-58 -39h184l-29 -105h-315l19 112l108 89q76 63 99 91q43 52 43 110q0 65 -64 65q-24 0 -54 -4.5t-49 -9.5l-18 -5l17 98q63 24 141 24q79 0 119.5 -40.5t40.5 -115.5z" />
    <glyph glyph-name="three" unicode="3" horiz-adv-x="405" 
d="M429 426q0 -75 -37 -118t-113 -65q111 -22 111 -125q0 -62 -32.5 -115t-89.5 -84q-88 -47 -272 -53l17 96q114 7 163 29q84 38 84 122q0 39 -25.5 61.5t-73.5 22.5h-52l16 94h53q59 0 88 31t29 84q0 64 -63 64q-26 0 -59 -4t-53 -8l-20 -5l17 97q68 20 137 20
q82 0 128.5 -35t46.5 -109z" />
    <glyph glyph-name="four" unicode="4" horiz-adv-x="470" 
d="M488 130l-29 -108h-74l-23 -132l-134 -20l27 152h-241l18 100l166 438h158l-196 -430h114l66 240h106l-42 -240h84z" />
    <glyph glyph-name="five" unicode="5" horiz-adv-x="425" 
d="M474 560l-32 -109h-190l-35 -149q36 22 88 22t86 -35.5t34 -110.5q0 -84 -41 -155t-118 -110q-88 -44 -242 -48l17 98q122 11 169 39q41 23 61.5 66.5t20.5 90.5q0 65 -57 65q-20 0 -45 -9t-40 -18l-15 -9l-58 22l72 350h325z" />
    <glyph glyph-name="six" unicode="6" horiz-adv-x="485" 
d="M526 699l-17 -97q-218 0 -275 -218q6 7 16.5 17t45.5 27t74 17q59 0 95.5 -39t36.5 -119q0 -112 -53 -196q-63 -101 -201 -101q-81 0 -127.5 42t-46.5 150q0 110 39.5 219.5t111.5 182.5q113 115 301 115zM372 284q0 35 -11.5 52t-39.5 17q-26 0 -52 -14.5t-39 -28.5
l-13 -14q-17 -85 -17 -125q0 -46 14 -67.5t45 -21.5q51 0 77 48q15 28 25.5 74t10.5 80z" />
    <glyph glyph-name="seven" unicode="7" horiz-adv-x="370" 
d="M464 560l-18 -102q-120 -119 -169.5 -230.5t-81.5 -317.5l-133 -20q35 227 89 342t178 219h-244l19 109h360z" />
    <glyph glyph-name="eight" unicode="8" horiz-adv-x="506" 
d="M544 525q0 -69 -38.5 -114.5t-103.5 -65.5q4 -1 11 -3.5t25 -13.5t32 -25t25 -40t11 -58q0 -106 -68 -160.5t-177 -54.5q-92 0 -146 35t-54 111q0 82 43 136t118 71q-3 1 -9 3.5t-20.5 13t-26 24t-20.5 37t-9 50.5q0 99 61 149t163 50q79 0 131 -35.5t52 -109.5zM414 519
q0 63 -63 63q-41 0 -62.5 -31t-21.5 -75q0 -57 38 -75l35 -17q3 1 8 3.5t18 13t22.5 24.5t17.5 39t8 55zM375 198q0 35 -19 55.5t-56 38.5l-25 12l-8.5 -5.5t-20 -17t-25 -29.5t-19.5 -41.5t-9 -53.5q0 -78 79 -78q49 0 76 33t27 86z" />
    <glyph glyph-name="nine" unicode="9" horiz-adv-x="487" 
d="M509 348q0 -100 -37.5 -204.5t-104.5 -171.5q-99 -101 -291 -107l18 99q92 7 164.5 54.5t93.5 136.5q-6 -5 -16 -12.5t-41.5 -20t-63.5 -12.5q-73 0 -110.5 48.5t-37.5 131.5q0 102 57 184q67 96 187 96q89 0 135.5 -56t46.5 -166zM385 376q0 102 -62 102q-45 0 -71 -41
q-38 -62 -38 -140q0 -93 55 -93q24 0 49 12t38 24l13 12q16 68 16 124z" />
    <glyph glyph-name="colon" unicode=":" horiz-adv-x="301" 
d="M316 453q0 -36 -24.5 -62t-60.5 -26t-61 26t-25 62t25 61.5t61 25.5t60.5 -25.5t24.5 -61.5zM249 78q0 -36 -24.5 -62t-60.5 -26t-61 26t-25 62t25 61.5t61 25.5t60.5 -25.5t24.5 -61.5z" />
    <glyph glyph-name="semicolon" unicode=";" horiz-adv-x="306" 
d="M325 453q0 -36 -24.5 -62t-60.5 -26t-61 26t-25 62t25 61.5t61 25.5t60.5 -25.5t24.5 -61.5zM257 135l-111 -305h-100l71 305h140z" />
    <glyph glyph-name="less" unicode="&#x3c;" horiz-adv-x="540" 
d="M591 600l-26 -145l-327 -123l283 -127l-24 -135l-392 215l18 100z" />
    <glyph glyph-name="equal" unicode="=" horiz-adv-x="540" 
d="M573 500l-21 -120h-430l21 120h430zM536 290l-21 -120h-430l21 120h430z" />
    <glyph glyph-name="greater" unicode="&#x3e;" horiz-adv-x="540" 
d="M553 386l-18 -100l-468 -216l26 145l327 125l-283 125l24 135z" />
    <glyph glyph-name="question" unicode="?" horiz-adv-x="338" 
d="M427 584q0 -34 -15.5 -67.5t-32 -52.5t-44.5 -47q-29 -27 -43.5 -45.5t-26.5 -53.5t-9 -78h-114q-1 25 1.5 48t5 39t12 34.5t13.5 27.5t18 26l17 20.5t20 20l18 17.5q49 49 49 90q0 42 -43 42q-18 0 -45 -4t-45 -8l-18 -4l18 101q56 20 135 20q63 0 96 -33t33 -93z
M266 58q0 -36 -24.5 -62t-60.5 -26t-61 26t-25 62t25 61.5t61 25.5t60.5 -25.5t24.5 -61.5z" />
    <glyph glyph-name="at" unicode="@" horiz-adv-x="909" 
d="M919 336q0 -158 -56 -240.5t-142 -82.5q-34 0 -60 12t-38 28.5t-19.5 33.5t-9.5 29l-1 12q-2 -5 -6 -13t-18.5 -28t-32 -35.5t-46 -28.5t-59.5 -13q-61 0 -104.5 44.5t-43.5 141.5q0 135 66.5 218.5t159.5 83.5q29 0 53 -10t34 -20l9 -10l24 32h89l-44 -269q-8 -50 4 -81
t41 -31q46 0 65.5 53t19.5 174q0 138 -71 208.5t-203 70.5q-153 0 -244 -103.5t-91 -285.5q0 -90 26 -156t70.5 -101.5t93.5 -52t105 -16.5q55 0 111 9t85 19l28 9v-101q-105 -36 -224 -36q-79 0 -148.5 21.5t-130 68.5t-96 133t-35.5 203q0 116 37.5 210t101 152.5
t143.5 90t168 31.5q172 0 280.5 -96t108.5 -278zM581 384q-21 23 -62 23q-45 0 -81 -60.5t-36 -148.5q0 -93 50 -93q27 0 52 27.5t37 55.5l12 27z" />
    <glyph glyph-name="A" unicode="A" horiz-adv-x="480" 
d="M485 0h-136l-1 146h-160l-52 -146h-141l293 700h142zM349 244l-2 194l1 183q-35 -114 -59 -183l-68 -194h128z" />
    <glyph glyph-name="B" unicode="B" 
d="M542 552q0 -83 -46 -133.5t-107 -57.5q115 -27 115 -139q0 -222 -262 -222h-177l123 700h177q177 0 177 -148zM411 548q0 32 -18.5 45.5t-55.5 13.5h-35l-36 -202h27q59 0 90 38q11 14 19.5 44.5t8.5 60.5zM374 218q0 50 -22.5 73.5t-73.5 23.5h-27l-40 -222h44
q62 0 89 30q30 34 30 95z" />
    <glyph glyph-name="C" unicode="C" horiz-adv-x="385" 
d="M494 674l-18 -101q-48 33 -101 33q-41 0 -74.5 -48t-51.5 -115t-27.5 -126t-9.5 -94q0 -73 14.5 -100t45.5 -27q17 0 48.5 9t54.5 17l23 9l-20 -114q-61 -27 -132 -27q-35 0 -62 9t-51.5 31t-38 67t-13.5 110q0 100 29 212.5t73 181.5q71 109 200 109q31 0 58.5 -9
t40.5 -18z" />
    <glyph glyph-name="D" unicode="D" horiz-adv-x="510" 
d="M551 464q0 -117 -38 -233.5t-101 -171.5q-67 -59 -200 -59h-147l123 700h147q108 0 162 -50.5t54 -185.5zM420 464q0 76 -21 104t-68 28h-31l-87 -492h23q58 0 93 41q42 49 66.5 150t24.5 169z" />
    <glyph glyph-name="E" unicode="E" horiz-adv-x="420" 
d="M523 700l-29 -109h-195l-30 -171h175l-17 -98h-175l-38 -213h200l-19 -109h-330l123 700h335z" />
    <glyph glyph-name="F" unicode="F" horiz-adv-x="400" 
d="M518 700l-34 -110h-185l-30 -170h175l-17 -98h-175l-57 -322h-130l123 700h330z" />
    <glyph glyph-name="G" unicode="G" horiz-adv-x="535" 
d="M567 666l-18 -102q-69 42 -131 42q-72 0 -116 -58q-37 -49 -64 -147t-27 -182q0 -73 24.5 -99t66.5 -26l62 8l38 221h-80l7 97h220l-72 -405q-110 -25 -184 -25q-44 0 -76.5 8t-66 30t-51.5 70.5t-18 120.5q0 106 34.5 222.5t92.5 179.5q82 89 213 89q40 0 76.5 -11
t52.5 -22z" />
    <glyph glyph-name="H" unicode="H" horiz-adv-x="550" 
d="M608 700l-123 -700h-130l57 322h-160l-57 -322h-130l123 700h130l-49 -280h160l49 280h130z" />
    <glyph glyph-name="I" unicode="I" horiz-adv-x="262" 
d="M320 700l-123 -700h-132l123 700h132z" />
    <glyph glyph-name="J" unicode="J" horiz-adv-x="305" 
d="M363 700l-89 -510q-21 -117 -80 -158.5t-195 -41.5l16 97q63 4 91 28.5t38 79.5l89 505h130z" />
    <glyph glyph-name="K" unicode="K" horiz-adv-x="485" 
d="M598 700l-211 -334l98 -366l-140 -10l-83 380l185 330h151zM318 700l-123 -700h-130l123 700h130z" />
    <glyph glyph-name="L" unicode="L" horiz-adv-x="355" 
d="M369 109l-34 -109h-270l123 700h130l-104 -591h155z" />
    <glyph glyph-name="M" unicode="M" horiz-adv-x="690" 
d="M727 700l-97 -700h-129l42 261q6 39 18.5 100.5t22.5 103.5l9 42q-55 -104 -92 -162l-132 -208l-60 214l-36 158q-19 -170 -35 -255l-49 -254h-129l145 700h120l79 -347l203 347h120z" />
    <glyph glyph-name="N" unicode="N" horiz-adv-x="540" 
d="M598 700l-123 -700h-116l-53 246q-11 49 -22 114.5t-16 107.5l-6 41q-9 -180 -23 -260l-44 -249h-130l123 700h128l50 -247q11 -52 20.5 -116t13.5 -101l4 -38q6 170 24 274l40 228h130z" />
    <glyph glyph-name="O" unicode="O" 
d="M546 500q0 -105 -26 -221t-73 -186q-69 -103 -197 -103q-174 0 -174 209q0 102 29 220.5t75 190.5q38 58 83.5 79t109.5 21q173 0 173 -210zM419 500q0 115 -58 115q-48 0 -78 -57q-30 -56 -54.5 -170t-24.5 -189q0 -62 14.5 -88t43.5 -26q45 0 77 57q32 58 56 169
t24 189z" />
    <glyph glyph-name="P" unicode="P" horiz-adv-x="465" 
d="M535 524q0 -154 -86 -237q-71 -70 -216 -70l-38 -217h-130l123 700h157q101 0 145.5 -45t44.5 -131zM404 524q0 43 -17 60.5t-55 17.5h-31l-52 -296q73 6 105 43q23 26 36.5 76t13.5 99z" />
    <glyph glyph-name="Q" unicode="Q" 
d="M546 500q0 -102 -26 -220t-73 -187q-57 -85 -148 -99l152 -184h-160l-86 184q-129 24 -129 205q0 101 29 220.5t75 190.5q37 58 83.5 79t106.5 21q176 0 176 -210zM419 500q0 115 -58 115q-48 0 -78 -57q-30 -56 -54.5 -170t-24.5 -189q0 -62 14.5 -88t43.5 -26
q45 0 77 57q32 58 56 170t24 188z" />
    <glyph glyph-name="R" unicode="R" horiz-adv-x="485" 
d="M549 532q0 -72 -38.5 -133t-109.5 -80q54 -43 58 -166l6 -153h-136l2 149q1 112 -32 145l-53 -4l-51 -290h-130l123 700h174q187 0 187 -168zM418 532q0 38 -16 52.5t-61 14.5h-40l-39 -219q88 2 115 29q41 41 41 123z" />
    <glyph glyph-name="S" unicode="S" horiz-adv-x="390" 
d="M459 674l-18 -102q-56 34 -111 34q-43 0 -65.5 -25t-22.5 -69q0 -41 48 -93l40 -43q74 -80 74 -176q0 -210 -209 -210q-39 0 -79.5 9t-61.5 17l-20 9l19 108q85 -35 131 -35q87 0 87 100q0 44 -50 98l-37 39q-73 77 -73 167q0 106 57 157t160 51q36 0 68.5 -9t47.5 -18z
" />
    <glyph glyph-name="T" unicode="T" horiz-adv-x="390" 
d="M543 700l-34 -110h-130l-104 -590h-130l104 590h-145l19 110h420z" />
    <glyph glyph-name="U" unicode="U" horiz-adv-x="516" 
d="M579 700l-91 -520q-18 -103 -70.5 -146.5t-158.5 -43.5q-101 0 -142.5 46.5t-24.5 143.5l91 520h130l-93 -529q-7 -40 3 -59.5t51 -19.5q37 0 55.5 18.5t26.5 60.5l93 529h130z" />
    <glyph glyph-name="V" unicode="V" horiz-adv-x="440" 
d="M573 700l-268 -700h-158l-34 700h143l-13 -400l-8 -235q41 162 64 235l125 400h149z" />
    <glyph glyph-name="W" unicode="W" horiz-adv-x="746" 
d="M864 700l-229 -700h-170l8 387l11 252q-51 -176 -75 -252l-121 -387h-171l11 700h143l-37 -393l-21 -242q46 171 68 242l125 393h175l-11 -393l-12 -242l60 242l99 393h147z" />
    <glyph glyph-name="X" unicode="X" horiz-adv-x="450" 
d="M573 700l-201 -336l88 -364h-150l-33 270l-130 -270h-157l217 364l-84 336h153l28 -251l108 251h161z" />
    <glyph glyph-name="Y" unicode="Y" horiz-adv-x="450" 
d="M583 700l-242 -412l-51 -288h-130l51 288l-98 412h148l30 -300l138 300h154z" />
    <glyph glyph-name="Z" unicode="Z" horiz-adv-x="415" 
d="M498 700l-16 -96l-292 -500h208l-28 -104h-335l17 96l291 500h-203l18 104h340z" />
    <glyph glyph-name="bracketleft" unicode="[" horiz-adv-x="305" 
d="M458 810l-20 -111h-120l-130 -738h120l-19 -111h-250l169 960h250z" />
    <glyph glyph-name="backslash" unicode="\" horiz-adv-x="272" 
d="M306 -10h-102l-120 720h102z" />
    <glyph glyph-name="bracketright" unicode="]" horiz-adv-x="305" 
d="M383 810l-169 -960h-250l19 111h120l130 738h-120l20 111h250z" />
    <glyph glyph-name="asciicircum" unicode="^" horiz-adv-x="446" 
d="M500 420h-126l-30 234l-112 -234h-138l211 350h108z" />
    <glyph glyph-name="underscore" unicode="_" horiz-adv-x="490" 
d="M473 -95l-20 -115h-490l20 115h490z" />
    <glyph glyph-name="grave" unicode="`" horiz-adv-x="316" 
d="M405 620h-112l-135 160h158z" />
    <glyph glyph-name="a" unicode="a" horiz-adv-x="502" 
d="M530 530l-93 -530h-95l-10 67q-2 -3 -5 -8.5t-15 -18.5t-26 -23t-36.5 -18.5t-46.5 -8.5q-55 0 -93 39t-38 137q0 63 13 125t39.5 119.5t75.5 93.5t113 36q31 0 56 -9.5t35 -18.5l9 -10l37 28h80zM380 419q-24 17 -55 17q-33 0 -58 -30.5t-38.5 -76.5t-20 -90.5
t-6.5 -82.5q0 -65 36 -65q23 0 49 26.5t41 52.5l14 27z" />
    <glyph glyph-name="b" unicode="b" 
d="M524 371q0 -71 -18 -144.5t-43 -119.5q-34 -62 -84.5 -89.5t-132.5 -27.5q-38 0 -81.5 10t-68.5 20l-25 11l121 689h130l-45 -257l5.5 8.5t16 18.5t26.5 23t37 18.5t48 8.5q47 0 80.5 -37t33.5 -132zM394 362q0 40 -6.5 58t-24.5 18q-21 0 -48 -26t-44 -52l-17 -26
l-42 -237q32 -10 54 -10q45 0 77 59q19 37 35 99.5t16 116.5z" />
    <glyph glyph-name="c" unicode="c" horiz-adv-x="355" 
d="M433 504l-18 -103q-46 35 -87 35q-33 0 -58.5 -29t-39 -71.5t-20 -81.5t-6.5 -68q0 -90 46 -90q21 0 50.5 8t48.5 16l19 9l-20 -114q-56 -25 -127 -25q-24 0 -47.5 7.5t-47.5 26.5t-39 59t-15 96q0 177 82 281q63 80 164 80q29 0 58 -9t43 -18z" />
    <glyph glyph-name="d" unicode="d" horiz-adv-x="510" 
d="M572 720l-127 -720h-95l-11 72l-5.5 -8.5t-16 -20t-26.5 -25t-38 -19.5t-50 -9q-24 0 -44 7t-41.5 25t-34 56.5t-12.5 94.5q0 63 14 124.5t42 117.5t78 90.5t115 34.5q22 0 43.5 -5.5t32.5 -10.5l10 -6l36 202h130zM390 423q-25 15 -60 15q-36 0 -63 -29.5t-40.5 -74.5
t-19.5 -85t-6 -73q0 -50 9.5 -67.5t31.5 -17.5q25 0 52 26.5t42 52.5l14 27z" />
    <glyph glyph-name="e" unicode="e" horiz-adv-x="442" 
d="M477 388q0 -66 -40 -110.5t-99.5 -63.5t-138.5 -22v-9q0 -53 17.5 -71t56.5 -18q23 0 57.5 8.5t57.5 17.5l22 8l-19 -111q-64 -27 -137 -27q-33 0 -59.5 5.5t-57 23t-48 58t-17.5 101.5q0 161 64 261.5t182 100.5q75 0 117 -37.5t42 -114.5zM352 396q0 56 -44 56
q-38 0 -65.5 -48t-37.5 -122q74 4 110.5 28.5t36.5 85.5z" />
    <glyph glyph-name="f" unicode="f" horiz-adv-x="310" 
d="M474 701l-18 -95q-53 25 -85 25q-53 0 -64 -55l-9 -46h100l-31 -91h-85l-75 -429q-21 -117 -80 -158.5t-195 -41.5l16 97q63 4 91 28.5t38 79.5l75 424h-70l16 91h70l8 42q16 88 61 123t121 35q31 0 60 -7t42 -15z" />
    <glyph glyph-name="g" unicode="g" horiz-adv-x="510" 
d="M538 530l-84 -480q-13 -71 -25.5 -113.5t-36.5 -71.5q-53 -65 -179 -65q-33 0 -74.5 9t-66.5 19l-26 9l19 106q93 -36 156 -36q55 0 79 32.5t35 101.5l7 46q-6 -9 -16 -21.5t-43 -34t-68 -21.5q-25 0 -47 7t-44.5 24.5t-36 56t-13.5 93.5q0 60 13 118.5t40 112t75.5 86
t111.5 32.5q32 0 58 -11t36 -22l10 -11l35 34h85zM388 414q-33 22 -66 22q-32 0 -56.5 -27.5t-37 -68t-18.5 -77.5t-6 -65q0 -53 11 -70.5t34 -17.5t48.5 25t40.5 50l14 25z" />
    <glyph glyph-name="h" unicode="h" horiz-adv-x="525" 
d="M534 392l-69 -392h-130l64 366q6 27 2.5 44.5t-21.5 17.5q-27 0 -59 -27t-51 -54l-18 -27l-57 -320h-130l127 720h130l-49 -280l8 11t21.5 24t34.5 30t45.5 24t55.5 11q60 0 84 -41t12 -107z" />
    <glyph glyph-name="i" unicode="i" horiz-adv-x="260" 
d="M317 680q0 -31 -21.5 -53t-52.5 -22t-52.5 22t-21.5 53t21.5 53t52.5 22t52.5 -22t21.5 -53zM288 530l-93 -530h-130l93 530h130z" />
    <glyph glyph-name="j" unicode="j" horiz-adv-x="260" 
d="M317 680q0 -31 -21.5 -53t-52.5 -22t-52.5 22t-21.5 53t21.5 53t52.5 22t52.5 -22t21.5 -53zM288 530l-91 -520q-21 -117 -80 -158.5t-195 -41.5l16 97q63 4 91 28.5t38 79.5l91 515h130z" />
    <glyph glyph-name="k" unicode="k" horiz-adv-x="460" 
d="M533 530l-153 -238l80 -292l-141 -10l-69 310l131 230h152zM322 720l-127 -720h-130l127 720h130z" />
    <glyph glyph-name="l" unicode="l" horiz-adv-x="250" 
d="M317 720l-127 -720h-130l127 720h130z" />
    <glyph glyph-name="m" unicode="m" horiz-adv-x="745" 
d="M754 392l-69 -392h-130l64 366q6 27 4 44.5t-16 17.5q-24 0 -51.5 -28t-43.5 -56l-16 -29l-56 -315h-130l64 366q6 27 4 44.5t-16 17.5q-24 0 -51.5 -28t-43.5 -56l-16 -29l-56 -315h-130l93 530h102l7 -95q2 4 7 11t20 25.5t32 32t42.5 25t51.5 11.5q47 0 70 -27.5
t23 -75.5q66 103 152 103q57 0 79 -40.5t10 -107.5z" />
    <glyph glyph-name="n" unicode="n" horiz-adv-x="525" 
d="M534 392l-69 -392h-130l64 366q6 27 2.5 44.5t-21.5 17.5q-27 0 -59 -28t-51 -56l-19 -29l-56 -315h-130l93 530h102l7 -95q3 4 7.5 11t21.5 25.5t35.5 32t47.5 25t59 11.5q60 0 84 -41t12 -107z" />
    <glyph glyph-name="o" unicode="o" horiz-adv-x="484" 
d="M510 360q0 -91 -24 -172.5t-68 -130.5q-61 -67 -178 -67q-173 0 -173 193q0 82 27 164.5t76 132.5q59 60 167 60q74 0 123.5 -44t49.5 -136zM383 360q0 48 -13 68.5t-46 20.5q-35 0 -62 -31t-40 -77t-19 -86.5t-6 -72.5q0 -100 56 -100q35 0 62.5 32.5t41 80.5t20 90.5
t6.5 74.5z" />
    <glyph glyph-name="p" unicode="p" 
d="M524 367q0 -72 -19 -150.5t-51 -129.5q-61 -97 -181 -97q-20 0 -39.5 4t-28.5 8l-9 5l-35 -197h-130l127 720h95l11 -75l6 9t17 20.5t27.5 26t38 20.5t47.5 9q57 0 90.5 -38.5t33.5 -134.5zM395 365q0 74 -33 74q-23 0 -50.5 -27.5t-43.5 -55.5l-15 -28l-40 -229
q32 -13 55 -13q47 0 79 66q18 37 33 104t15 109z" />
    <glyph glyph-name="q" unicode="q" horiz-adv-x="510" 
d="M538 530l-127 -720h-130l43 245q-5 -7 -14.5 -18t-39 -29t-57.5 -18q-25 0 -47 7t-44.5 25t-36 56t-13.5 93q0 63 12.5 124t39 118t76 92t115.5 35q29 0 54.5 -10.5t36.5 -21.5l11 -10l33 32h88zM388 413q-24 23 -63 23q-34 0 -60 -29.5t-39 -74t-19 -84.5t-6 -72
q0 -49 9.5 -68t30.5 -19t48 24.5t43 48.5l16 25z" />
    <glyph glyph-name="r" unicode="r" horiz-adv-x="343" 
d="M431 525l-22 -118q-28 14 -54 14t-52 -26.5t-39 -52.5l-13 -26l-56 -316h-130l93 530h95l3 -95q1 4 3.5 11t12.5 25.5t22.5 32t34.5 25t48 11.5q15 0 28.5 -4t19.5 -8z" />
    <glyph glyph-name="s" unicode="s" horiz-adv-x="354" 
d="M399 512l-17 -100q-46 26 -98 26q-67 0 -67 -55q0 -6 1.5 -11.5t2.5 -9.5t5 -9l5.5 -7t8 -7.5t8 -6.5t9.5 -7.5t10 -7.5l29 -22q64 -48 64 -130q0 -175 -187 -175q-34 0 -68.5 8t-52.5 16l-18 9l19 104q72 -33 111 -33q67 0 67 62q0 18 -9 30t-31 29l-26 20
q-22 17 -36 31.5t-27 43t-13 63.5q0 82 51.5 124.5t138.5 42.5q33 0 63 -7t44 -14z" />
    <glyph glyph-name="t" unicode="t" horiz-adv-x="320" 
d="M398 530l-31 -91h-85l-53 -302q-8 -44 30 -44q8 0 27 4.5t34 8.5l15 4l-18 -101q-52 -19 -108 -19q-135 0 -110 143l53 306h-70l16 91h70l36 120l123 40l-29 -160h100z" />
    <glyph glyph-name="u" unicode="u" horiz-adv-x="515" 
d="M543 530l-93 -530h-95l-9 87l-5.5 -10.5t-17 -23t-29 -29.5t-41 -23.5t-52.5 -10.5q-70 0 -98.5 45t-13.5 130l64 365h130l-64 -365q-12 -65 21 -65q28 0 57 28t45 56l15 29l56 317h130z" />
    <glyph glyph-name="v" unicode="v" horiz-adv-x="440" 
d="M538 530l-239 -530h-152l-59 530h142l3 -280v-177q34 113 58 177l104 280h143z" />
    <glyph glyph-name="w" unicode="w" horiz-adv-x="734" 
d="M812 530l-194 -530h-168l-4 254l2 213l-71 -212l-88 -255h-167l-14 530h139l-20 -267l-13 -211q38 140 63 211l93 267h172l3 -267l-4 -211q35 141 55 211l75 267h141z" />
    <glyph glyph-name="x" unicode="x" horiz-adv-x="460" 
d="M548 530l-184 -251l101 -279h-155l-40 205l-111 -205h-164l199 279l-96 251h158l33 -185l93 185h166z" />
    <glyph glyph-name="y" unicode="y" horiz-adv-x="425" 
d="M523 530l-219 -526q-47 -113 -117.5 -153.5t-208.5 -40.5l18 100q68 6 110.5 24.5t69.5 63.5l-88 532h152l12 -397l123 397h148z" />
    <glyph glyph-name="z" unicode="z" horiz-adv-x="408" 
d="M463 530l-15 -90l-248 -338h191l-24 -102h-332l16 90l247 338h-188l18 102h335z" />
    <glyph glyph-name="braceleft" unicode="{" horiz-adv-x="303" 
d="M456 810l-19 -108h-7q-56 0 -81 -15.5t-34 -62.5l-28 -159q-11 -64 -44 -93.5t-89 -43.5q50 -14 68 -59t8 -102l-19 -111q-9 -56 12.5 -77t75.5 -21h7l-19 -108h-37q-103 0 -143.5 56t-22.5 157l20 114q6 35 -7.5 68t-46.5 36l19 110q3 0 8 0.5t18.5 5t24.5 12.5t22 25
t15 41l25 142q19 111 75 152t162 41h37z" />
    <glyph glyph-name="bar" unicode="|" horiz-adv-x="260" 
d="M338 810l-162 -920h-130l162 920h130z" />
    <glyph glyph-name="braceright" unicode="}" horiz-adv-x="303" 
d="M371 381l-19 -110q-3 0 -8 -0.5t-18 -4.5t-24 -11.5t-22.5 -25.5t-15.5 -42l-29 -154q-20 -107 -71 -145t-163 -38h-37l19 108h7q53 0 79.5 16t34.5 62l27 151q12 67 44 101.5t90 43.5q-52 16 -68.5 60.5t-6.5 102.5l19 109q10 57 -10 77.5t-78 20.5h-7l19 108h37
q203 0 166 -213l-21 -122q-6 -34 8.5 -61.5t47.5 -32.5z" />
    <glyph glyph-name="asciitilde" unicode="~" horiz-adv-x="630" 
d="M646 404l-21 -119q-64 -43 -135 -43q-45 0 -125 33.5t-104 33.5q-32 0 -71.5 -11t-63.5 -22l-24 -11l21 120q67 44 151 44q49 0 128 -34t103 -34t59.5 10.5t58.5 21.5z" />
    <glyph glyph-name="exclamdown" unicode="&#xa1;" horiz-adv-x="301" 
d="M317 452q0 -36 -25 -61.5t-61 -25.5t-60.5 25.5t-24.5 61.5t24.5 62t60.5 26t61 -26t25 -62zM257 270l-56 -460h-146l106 460h96z" />
    <glyph glyph-name="cent" unicode="&#xa2;" horiz-adv-x="355" 
d="M433 504l-18 -103q-46 35 -87 35q-33 0 -58.5 -29t-39 -71.5t-20 -81.5t-6.5 -68q0 -90 46 -90q21 0 50.5 8t48.5 16l19 9l-20 -114q-35 -15 -85 -22l-17 -103h-80l18 104q-47 12 -79.5 55.5t-32.5 129.5q0 177 82 281q51 65 126 77l18 103h80l-19 -105q20 -4 38.5 -12
t26.5 -13z" />
    <glyph glyph-name="sterling" unicode="&#xa3;" horiz-adv-x="469" 
d="M540 631l-17 -98q-54 33 -112 33q-42 0 -61 -20.5t-27 -65.5l-13 -74h146l-33 -101h-131l-35 -199h191l-19 -106h-409l19 106h90l35 199h-80l18 101h80l13 74q17 99 68.5 144.5t145.5 45.5q40 0 72.5 -10t45.5 -20z" />
    <glyph glyph-name="currency" unicode="&#xa4;" horiz-adv-x="495" 
d="M586 629l-18 -102q-69 39 -135 39q-97 0 -123 -99h172l-26 -98h-175q-8 -32 -9 -39q-2 -12 -4 -34h184l-26 -98h-166q0 -103 100 -103q28 0 62.5 8.5t55.5 17.5l20 9l-18 -107q-57 -33 -139 -33q-40 0 -73 9t-64 30.5t-49 64.5t-18 104h-82l29 98h56q2 22 4 34q1 7 9 39
h-68l29 98h71q52 203 256 203q36 0 72 -10t55 -20z" />
    <glyph glyph-name="yen" unicode="&#xa5;" horiz-adv-x="450" 
d="M564 660l-161 -267h76l-20 -114h-120l-11 -67h119l-20 -114h-120l-17 -98h-130l17 98h-120l20 114h121l11 67h-120l20 114h77l-69 267h148l26 -260l119 260h154z" />
    <glyph glyph-name="brokenbar" unicode="&#xa6;" horiz-adv-x="260" 
d="M338 810l-69 -390h-130l69 390h130zM244 280l-68 -390h-130l68 390h130z" />
    <glyph glyph-name="section" unicode="&#xa7;" horiz-adv-x="440" 
d="M502 625l-18 -98q-81 43 -143 43q-74 0 -74 -54q0 -31 51 -66l64 -43q81 -55 81 -122q0 -40 -28.5 -69.5t-56.5 -39.5l-28 -9q6 -3 15 -10.5t24 -37.5t15 -70q0 -151 -209 -151q-37 0 -77 8t-61 16l-21 9l18 103q89 -37 135 -37q84 0 84 51q0 36 -56 74l-58 39
q-40 26 -60.5 52.5t-20.5 70.5q0 26 11.5 47t28.5 33t34 20t28 11l12 3q-2 1 -6 3.5t-13.5 12t-16.5 21.5t-13 33.5t-6 46.5q0 155 208 155q38 0 77.5 -11t59.5 -23zM340 270q0 29 -49 57l-47 28q-5 -2 -12 -6.5t-19 -18.5t-12 -30q0 -12 11.5 -25.5t19 -18.5t25.5 -16
l49 -32q34 26 34 62z" />
    <glyph glyph-name="dieresis" unicode="&#xa8;" horiz-adv-x="367" 
d="M468 690q0 -29 -20 -49.5t-49 -20.5t-49 20.5t-20 49.5t20 49.5t49 20.5t49 -20.5t20 -49.5zM279 690q0 -29 -20 -49.5t-49 -20.5t-49 20.5t-20 49.5t20 49.5t49 20.5t49 -20.5t20 -49.5z" />
    <glyph glyph-name="copyright" unicode="&#xa9;" horiz-adv-x="720" 
d="M740 315q0 -171 -89.5 -268t-235.5 -97q-148 0 -236.5 95t-88.5 270q0 169 91 267t234 98q146 0 235.5 -98t89.5 -267zM637 315q0 133 -58 204t-164 71t-164 -70t-58 -205q0 -136 58 -205.5t164 -69.5q107 0 164.5 69.5t57.5 205.5zM531 139q-44 -21 -95 -21
q-167 0 -167 199q0 60 18.5 102t48.5 61t55.5 26.5t51.5 7.5q23 0 45 -5.5t32 -10.5l11 -6v-76q-51 20 -88 20q-68 0 -68 -119q0 -118 61 -118q16 0 39.5 5t39.5 10l16 5v-80z" />
    <glyph glyph-name="ordfeminine" unicode="&#xaa;" horiz-adv-x="396" 
d="M476 700l-77 -440h-89l-9 49l-11 -16t-31.5 -26t-51.5 -16q-46 0 -79 32t-33 114q0 52 11 104t33 100.5t63 78.5t94 30q25 0 43.5 -7.5t24.5 -14.5l5 -8l31 20h76zM374 115l-20 -115h-324l20 115h324zM341 609q-9 14 -35 14q-32 0 -54.5 -44.5t-30.5 -95t-8 -94.5
q0 -54 25 -54q16 0 34 22t28 44l10 22z" />
    <glyph glyph-name="guillemotleft" unicode="&#xab;" horiz-adv-x="470" 
d="M536 600l-34 -191l-95 -77l67 -81l-32 -181l-150 229l14 76zM326 600l-34 -191l-95 -77l67 -81l-32 -181l-150 229l14 76z" />
    <glyph glyph-name="logicalnot" unicode="&#xac;" horiz-adv-x="610" 
d="M626 400l-54 -301h-120l32 181h-380l22 120h500z" />
    <glyph glyph-name="registered" unicode="&#xae;" horiz-adv-x="720" 
d="M740 315q0 -171 -89.5 -268t-235.5 -97q-148 0 -236.5 95t-88.5 270q0 169 91 267t234 98q146 0 235.5 -98t89.5 -267zM637 315q0 133 -58 204t-164 71t-164 -70t-58 -205q0 -136 58 -205.5t164 -69.5q107 0 164.5 69.5t57.5 205.5zM564 137h-103l-13 60q-14 63 -38 84
l-27 -3v-141h-90v370h111q27 0 45.5 -1.5t40 -8t34.5 -18t21.5 -32t8.5 -49.5q0 -37 -18 -59t-55 -38q37 -26 57 -86zM462 398q0 30 -14.5 38.5t-52.5 8.5h-12v-110q50 2 64.5 15t14.5 48z" />
    <glyph glyph-name="macron" unicode="&#xaf;" horiz-adv-x="335" 
d="M451 770l-21 -120h-295l21 120h295z" />
    <glyph glyph-name="degree" unicode="&#xb0;" horiz-adv-x="394" 
d="M464 589q0 -105 -50 -172t-148 -67q-66 0 -106.5 34t-40.5 107q0 100 50 164.5t147 64.5q65 0 106.5 -33t41.5 -98zM346 591q0 52 -38 52q-26 0 -43 -30t-22.5 -62.5t-5.5 -61.5q0 -60 38 -60q25 0 42 32t23 66.5t6 63.5z" />
    <glyph glyph-name="plusminus" unicode="&#xb1;" horiz-adv-x="570" 
d="M586 400l-22 -120h-160l-23 -135h-130l23 135h-170l22 120h170l29 165h130l-29 -165h160zM533 100l-21 -115h-460l21 115h460z" />
    <glyph glyph-name="twosuperior" unicode="&#xb2;" horiz-adv-x="294" 
d="M367 594q0 -67 -27.5 -110.5t-84.5 -90.5l-44 -36h119l-22 -79h-226l13 72l106 99q68 63 68 135q0 50 -40 50q-14 0 -34.5 -4t-34.5 -8l-14 -3l13 74q35 17 92 17q52 0 84 -27.5t32 -88.5z" />
    <glyph glyph-name="threesuperior" unicode="&#xb3;" horiz-adv-x="294" 
d="M367 609q0 -82 -85 -107q27 -8 43.5 -32t16.5 -57q0 -69 -39.5 -107t-107.5 -38q-25 0 -52.5 6t-42.5 12l-16 5l13 74q51 -23 98 -23q25 0 37 20t12 48q0 30 -11.5 44t-43.5 14h-43l12 70h43q65 0 65 61q0 37 -34 37q-17 0 -39.5 -3.5t-36.5 -6.5l-15 -4l13 72
q39 16 89 16q52 0 88 -24.5t36 -76.5z" />
    <glyph glyph-name="acute" unicode="&#xb4;" horiz-adv-x="316" 
d="M434 780l-183 -160h-122l137 160h168z" />
    <glyph glyph-name="mu" unicode="&#xb5;" horiz-adv-x="520" 
d="M548 530l-93 -530h-95l-9 87l-5.5 -10.5t-17 -23t-29 -29.5t-41 -23.5t-52.5 -10.5h-13l-32 -180h-130l127 720h130l-64 -365q-12 -65 21 -65q28 0 57 28t44 56l16 29l56 317h130z" />
    <glyph glyph-name="paragraph" unicode="&#xb6;" horiz-adv-x="595" 
d="M653 700l-123 -700h-120l123 700h120zM468 700l-123 -700h-120l39 219q-166 21 -166 174q0 141 63.5 224t201.5 83h105zM329 587q-36 5 -60.5 -28t-33 -74.5t-8.5 -83.5q0 -76 55 -77z" />
    <glyph glyph-name="periodcentered" unicode="&#xb7;" horiz-adv-x="301" 
d="M302 379q0 -36 -24.5 -62t-60.5 -26t-61 26t-25 62t25 61.5t61 25.5t60.5 -25.5t24.5 -61.5z" />
    <glyph glyph-name="cedilla" unicode="&#xb8;" horiz-adv-x="264" 
d="M230 -86q0 -114 -137 -114q-22 0 -48 6t-41 12l-15 6l15 89q56 -20 82 -20q34 0 34 38q0 16 -7.5 36t-14.5 31l-8 12h78q7 -4 17.5 -11.5t27.5 -32.5t17 -52z" />
    <glyph glyph-name="onesuperior" unicode="&#xb9;" horiz-adv-x="294" 
d="M343 700l-74 -422h-98l57 319l-88 -35l14 81l116 57h73z" />
    <glyph glyph-name="ordmasculine" unicode="&#xba;" horiz-adv-x="417" 
d="M472 559q0 -76 -20 -144.5t-57 -109.5q-52 -56 -149 -56q-144 0 -144 162q0 69 22 137.5t63 110.5q50 51 141 51q62 0 103 -37t41 -114zM400 115l-20 -115h-355l20 115h355zM356 559q0 41 -8.5 56.5t-35.5 15.5q-31 0 -53 -44.5t-30 -92.5t-8 -84q0 -44 10 -62.5
t31 -18.5q25 0 44.5 27t29.5 66.5t15 75t5 61.5z" />
    <glyph glyph-name="guillemotright" unicode="&#xbb;" horiz-adv-x="470" 
d="M506 371l-14 -76l-230 -225l34 192l95 81l-67 77l32 180zM296 371l-14 -76l-230 -225l34 192l95 81l-67 77l32 180z" />
    <glyph glyph-name="onequarter" unicode="&#xbc;" horiz-adv-x="797" 
d="M823 162l-23 -80h-35l-14 -82h-98l14 82h-149l12 67l91 273h109l-98 -260h51l42 140h79l-24 -140h43zM766 810l-527 -920h-84l527 920h84zM343 700l-74 -422h-98l57 319l-88 -35l14 81l116 57h73z" />
    <glyph glyph-name="onehalf" unicode="&#xbd;" horiz-adv-x="797" 
d="M821 316q0 -67 -27.5 -110.5t-84.5 -90.5l-44 -36h119l-22 -79h-226l13 72l106 99q68 63 68 135q0 50 -40 50q-14 0 -34.5 -4t-34.5 -8l-14 -3l13 74q35 17 92 17q52 0 84 -27.5t32 -88.5zM766 810l-527 -920h-84l527 920h84zM343 700l-74 -422h-98l57 319l-88 -35l14 81
l116 57h73z" />
    <glyph glyph-name="threequarters" unicode="&#xbe;" horiz-adv-x="797" 
d="M823 162l-23 -80h-35l-14 -82h-98l14 82h-149l12 67l91 273h109l-98 -260h51l42 140h79l-24 -140h43zM766 810l-527 -920h-84l527 920h84zM367 609q0 -82 -85 -107q27 -8 43.5 -32t16.5 -57q0 -69 -39.5 -107t-107.5 -38q-25 0 -52.5 6t-42.5 12l-16 5l13 74
q51 -23 98 -23q25 0 37 20t12 48q0 30 -11.5 44t-43.5 14h-43l12 70h43q65 0 65 61q0 37 -34 37q-17 0 -39.5 -3.5t-36.5 -6.5l-15 -4l13 72q39 16 89 16q52 0 88 -24.5t36 -76.5z" />
    <glyph glyph-name="questiondown" unicode="&#xbf;" horiz-adv-x="338" 
d="M355 452q0 -36 -25 -61.5t-61 -25.5t-60.5 25.5t-24.5 61.5t24.5 62t60.5 26t61 -26t25 -62zM308 270q1 -25 -1.5 -48t-5 -39t-12 -34.5t-13.5 -27.5t-18 -26l-17 -20.5t-20 -20l-18 -17.5q-49 -49 -49 -90q0 -42 43 -42q18 0 45 4t45 8l18 4l-18 -101q-56 -20 -135 -20
q-63 0 -96 33t-33 93q0 34 15.5 67.5t32 52.5t44.5 47q29 27 43.5 45.5t26.5 53.5t9 78h114z" />
    <glyph glyph-name="Agrave" unicode="&#xc0;" horiz-adv-x="480" 
d="M412 750h-112l-135 130h161zM485 0h-136l-1 146h-160l-52 -146h-141l293 700h142zM349 244l-2 194l1 183q-35 -114 -59 -183l-68 -194h128z" />
    <glyph glyph-name="Aacute" unicode="&#xc1;" horiz-adv-x="480" 
d="M607 880l-183 -130h-122l124 130h181zM485 0h-136l-1 146h-160l-52 -146h-141l293 700h142zM349 244l-2 194l1 183q-35 -114 -59 -183l-68 -194h128z" />
    <glyph glyph-name="Acircumflex" unicode="&#xc2;" horiz-adv-x="480" 
d="M547 750h-133l-38 52l-64 -52h-151l160 130h121zM485 0h-136l-1 146h-160l-52 -146h-141l293 700h142zM349 244l-2 194l1 183q-35 -114 -59 -183l-68 -194h128z" />
    <glyph glyph-name="Atilde" unicode="&#xc3;" horiz-adv-x="480" 
d="M537 889l-19 -109q-39 -26 -78 -26q-26 0 -77 18t-74 18q-18 0 -41.5 -7.5t-38.5 -14.5l-15 -8l19 110q43 28 92 28q30 0 80.5 -17t69.5 -17q14 0 34.5 6t34.5 12zM485 0h-136l-1 146h-160l-52 -146h-141l293 700h142zM349 244l-2 194l1 183q-35 -114 -59 -183l-68 -194
h128z" />
    <glyph glyph-name="Adieresis" unicode="&#xc4;" horiz-adv-x="480" 
d="M542 820q0 -29 -20 -49.5t-49 -20.5t-49 20.5t-20 49.5t20 49.5t49 20.5t49 -20.5t20 -49.5zM333 820q0 -29 -20 -49.5t-49 -20.5t-49 20.5t-20 49.5t20 49.5t49 20.5t49 -20.5t20 -49.5zM485 0h-136l-1 146h-160l-52 -146h-141l293 700h142zM349 244l-2 194l1 183
q-35 -114 -59 -183l-68 -194h128z" />
    <glyph glyph-name="Aring" unicode="&#xc5;" horiz-adv-x="480" 
d="M518 833q0 -65 -45 -98.5t-112 -33.5q-57 0 -90.5 26t-33.5 75q0 64 43 98.5t114 34.5q56 0 90 -27t34 -75zM485 0h-136l-1 146h-160l-52 -146h-141l293 700h142zM425 830q0 36 -39 36q-26 0 -41 -16.5t-15 -41.5q0 -17 10 -27.5t28 -10.5q27 0 42 17t15 43zM349 244
l-2 194l1 183q-35 -114 -59 -183l-68 -194h128z" />
    <glyph glyph-name="AE" unicode="&#xc6;" horiz-adv-x="595" 
d="M698 700l-29 -109h-165l-30 -171h155l-17 -98h-155l-38 -213h170l-19 -109h-300l26 146h-99l-55 -146h-147l311 700h392zM380 627l-72 -189l-75 -194h80z" />
    <glyph glyph-name="Ccedilla" unicode="&#xc7;" horiz-adv-x="385" 
d="M494 674l-18 -101q-48 33 -101 33q-41 0 -74.5 -48t-51.5 -115t-27.5 -126t-9.5 -94q0 -73 14.5 -100t45.5 -27q17 0 48.5 9t54.5 17l23 9l-20 -114q-46 -21 -105 -26q37 -35 37 -77q0 -114 -137 -114q-22 0 -48 6t-41 12l-15 6l15 89q56 -20 82 -20q34 0 34 38
q0 32 -25 71q-94 37 -94 205q0 100 29 212.5t73 181.5q71 109 200 109q31 0 58.5 -9t40.5 -18z" />
    <glyph glyph-name="Egrave" unicode="&#xc8;" horiz-adv-x="420" 
d="M425 750h-112l-135 130h161zM523 700l-29 -109h-195l-30 -171h175l-17 -98h-175l-38 -213h200l-19 -109h-330l123 700h335z" />
    <glyph glyph-name="Eacute" unicode="&#xc9;" horiz-adv-x="420" 
d="M584 880l-183 -130h-122l124 130h181zM523 700l-29 -109h-195l-30 -171h175l-17 -98h-175l-38 -213h200l-19 -109h-330l123 700h335z" />
    <glyph glyph-name="Ecircumflex" unicode="&#xca;" horiz-adv-x="420" 
d="M545 750h-133l-38 52l-64 -52h-151l160 130h121zM523 700l-29 -109h-195l-30 -171h175l-17 -98h-175l-38 -213h200l-19 -109h-330l123 700h335z" />
    <glyph glyph-name="Edieresis" unicode="&#xcb;" horiz-adv-x="420" 
d="M538 820q0 -29 -20 -49.5t-49 -20.5t-49 20.5t-20 49.5t20 49.5t49 20.5t49 -20.5t20 -49.5zM329 820q0 -29 -20 -49.5t-49 -20.5t-49 20.5t-20 49.5t20 49.5t49 20.5t49 -20.5t20 -49.5zM523 700l-29 -109h-195l-30 -171h175l-17 -98h-175l-38 -213h200l-19 -109h-330
l123 700h335z" />
    <glyph glyph-name="Igrave" unicode="&#xcc;" horiz-adv-x="262" 
d="M310 750h-112l-135 130h161zM320 700l-123 -700h-132l123 700h132z" />
    <glyph glyph-name="Iacute" unicode="&#xcd;" horiz-adv-x="262" 
d="M502 880l-183 -130h-122l124 130h181zM320 700l-123 -700h-132l123 700h132z" />
    <glyph glyph-name="Icircumflex" unicode="&#xce;" horiz-adv-x="262" 
d="M449 750h-133l-38 52l-64 -52h-151l160 130h121zM320 700l-123 -700h-132l123 700h132z" />
    <glyph glyph-name="Idieresis" unicode="&#xcf;" horiz-adv-x="262" 
d="M436 820q0 -29 -20 -49.5t-49 -20.5t-49 20.5t-20 49.5t20 49.5t49 20.5t49 -20.5t20 -49.5zM247 820q0 -29 -20 -49.5t-49 -20.5t-49 20.5t-20 49.5t20 49.5t49 20.5t49 -20.5t20 -49.5zM320 700l-123 -700h-132l123 700h132z" />
    <glyph glyph-name="Eth" unicode="&#xd0;" horiz-adv-x="510" 
d="M551 464q0 -117 -38 -233.5t-101 -171.5q-67 -59 -200 -59h-147l58 332h-54l15 88h55l49 280h147q108 0 162 -50.5t54 -185.5zM420 464q0 76 -21 104t-68 28h-31l-31 -176h85l-15 -88h-86l-40 -228h23q58 0 93 41q42 49 66.5 150t24.5 169z" />
    <glyph glyph-name="Ntilde" unicode="&#xd1;" horiz-adv-x="540" 
d="M584 889l-19 -109q-39 -26 -78 -26q-26 0 -77 18t-74 18q-18 0 -41.5 -7.5t-38.5 -14.5l-15 -8l19 110q43 28 92 28q30 0 80.5 -17t69.5 -17q14 0 34.5 6t33.5 12zM598 700l-123 -700h-116l-53 246q-11 49 -22 114.5t-16 107.5l-6 41q-9 -180 -23 -260l-44 -249h-130
l123 700h128l50 -247q11 -52 20.5 -116t13.5 -101l4 -38q6 170 24 274l40 228h130z" />
    <glyph glyph-name="Ograve" unicode="&#xd2;" 
d="M425 750h-112l-135 130h161zM546 500q0 -105 -26 -221t-73 -186q-69 -103 -197 -103q-174 0 -174 209q0 102 29 220.5t75 190.5q38 58 83.5 79t109.5 21q173 0 173 -210zM419 500q0 115 -58 115q-48 0 -78 -57q-30 -56 -54.5 -170t-24.5 -189q0 -62 14.5 -88t43.5 -26
q45 0 77 57q32 58 56 169t24 189z" />
    <glyph glyph-name="Oacute" unicode="&#xd3;" 
d="M614 880l-183 -130h-122l124 130h181zM546 500q0 -105 -26 -221t-73 -186q-69 -103 -197 -103q-174 0 -174 209q0 102 29 220.5t75 190.5q38 58 83.5 79t109.5 21q173 0 173 -210zM419 500q0 115 -58 115q-48 0 -78 -57q-30 -56 -54.5 -170t-24.5 -189q0 -62 14.5 -88
t43.5 -26q45 0 77 57q32 58 56 169t24 189z" />
    <glyph glyph-name="Ocircumflex" unicode="&#xd4;" 
d="M558 750h-133l-38 52l-64 -52h-151l160 130h121zM546 500q0 -105 -26 -221t-73 -186q-69 -103 -197 -103q-174 0 -174 209q0 102 29 220.5t75 190.5q38 58 83.5 79t109.5 21q173 0 173 -210zM419 500q0 115 -58 115q-48 0 -78 -57q-30 -56 -54.5 -170t-24.5 -189
q0 -62 14.5 -88t43.5 -26q45 0 77 57q32 58 56 169t24 189z" />
    <glyph glyph-name="Otilde" unicode="&#xd5;" 
d="M561 889l-19 -109q-39 -26 -78 -26q-26 0 -77 18t-74 18q-18 0 -41.5 -7.5t-38.5 -14.5l-15 -8l19 110q43 28 92 28q30 0 80.5 -17t69.5 -17q14 0 34.5 6t34.5 12zM546 500q0 -105 -26 -221t-73 -186q-69 -103 -197 -103q-174 0 -174 209q0 102 29 220.5t75 190.5
q38 58 83.5 79t109.5 21q173 0 173 -210zM419 500q0 115 -58 115q-48 0 -78 -57q-30 -56 -54.5 -170t-24.5 -189q0 -62 14.5 -88t43.5 -26q45 0 77 57q32 58 56 169t24 189z" />
    <glyph glyph-name="Odieresis" unicode="&#xd6;" 
d="M558 820q0 -29 -20 -49.5t-49 -20.5t-49 20.5t-20 49.5t20 49.5t49 20.5t49 -20.5t20 -49.5zM349 820q0 -29 -20 -49.5t-49 -20.5t-49 20.5t-20 49.5t20 49.5t49 20.5t49 -20.5t20 -49.5zM546 500q0 -105 -26 -221t-73 -186q-69 -103 -197 -103q-174 0 -174 209
q0 102 29 220.5t75 190.5q38 58 83.5 79t109.5 21q173 0 173 -210zM419 500q0 115 -58 115q-48 0 -78 -57q-30 -56 -54.5 -170t-24.5 -189q0 -62 14.5 -88t43.5 -26q45 0 77 57q32 58 56 169t24 189z" />
    <glyph glyph-name="multiply" unicode="&#xd7;" horiz-adv-x="479" 
d="M509 218l-92 -92l-118 117l-117 -117l-92 92l117 117l-117 117l92 92l117 -117l118 117l92 -92l-118 -117z" />
    <glyph glyph-name="Oslash" unicode="&#xd8;" 
d="M583 810l-79 -155q42 -52 42 -155q0 -105 -26 -221t-73 -186q-69 -103 -197 -103q-44 0 -79 14l-58 -114h-72l78 153q-43 53 -43 156q0 102 29 220.5t75 190.5q38 58 83.5 79t109.5 21q46 0 79 -15l59 115h72zM401 595q-13 20 -40 20q-48 0 -78 -57q-29 -54 -53 -162.5
t-26 -185.5zM419 489l-197 -384q14 -20 40 -20q45 0 77 57q31 56 54.5 161.5t25.5 185.5z" />
    <glyph glyph-name="Ugrave" unicode="&#xd9;" horiz-adv-x="516" 
d="M442 750h-112l-135 130h161zM579 700l-91 -520q-18 -103 -70.5 -146.5t-158.5 -43.5q-101 0 -142.5 46.5t-24.5 143.5l91 520h130l-93 -529q-7 -40 3 -59.5t51 -19.5q37 0 55.5 18.5t26.5 60.5l93 529h130z" />
    <glyph glyph-name="Uacute" unicode="&#xda;" horiz-adv-x="516" 
d="M625 880l-183 -130h-122l124 130h181zM579 700l-91 -520q-18 -103 -70.5 -146.5t-158.5 -43.5q-101 0 -142.5 46.5t-24.5 143.5l91 520h130l-93 -529q-7 -40 3 -59.5t51 -19.5q37 0 55.5 18.5t26.5 60.5l93 529h130z" />
    <glyph glyph-name="Ucircumflex" unicode="&#xdb;" horiz-adv-x="516" 
d="M570 750h-133l-38 52l-64 -52h-151l160 130h121zM579 700l-91 -520q-18 -103 -70.5 -146.5t-158.5 -43.5q-101 0 -142.5 46.5t-24.5 143.5l91 520h130l-93 -529q-7 -40 3 -59.5t51 -19.5q37 0 55.5 18.5t26.5 60.5l93 529h130z" />
    <glyph glyph-name="Udieresis" unicode="&#xdc;" horiz-adv-x="516" 
d="M566 820q0 -29 -20 -49.5t-49 -20.5t-49 20.5t-20 49.5t20 49.5t49 20.5t49 -20.5t20 -49.5zM357 820q0 -29 -20 -49.5t-49 -20.5t-49 20.5t-20 49.5t20 49.5t49 20.5t49 -20.5t20 -49.5zM579 700l-91 -520q-18 -103 -70.5 -146.5t-158.5 -43.5q-101 0 -142.5 46.5
t-24.5 143.5l91 520h130l-93 -529q-7 -40 3 -59.5t51 -19.5q37 0 55.5 18.5t26.5 60.5l93 529h130z" />
    <glyph glyph-name="Yacute" unicode="&#xdd;" horiz-adv-x="450" 
d="M581 880l-183 -130h-122l124 130h181zM583 700l-242 -412l-51 -288h-130l51 288l-98 412h148l30 -300l138 300h154z" />
    <glyph glyph-name="Thorn" unicode="&#xde;" horiz-adv-x="465" 
d="M518 424q0 -154 -86 -237q-71 -70 -216 -70l-21 -117h-130l123 700h130l-18 -100h28q101 0 145.5 -45t44.5 -131zM387 424q0 43 -17 60.5t-55 17.5h-32l-52 -296q74 7 106 43q23 26 36.5 76t13.5 99z" />
    <glyph glyph-name="germandbls" unicode="&#xdf;" horiz-adv-x="524" 
d="M545 604q0 -78 -80 -145q-21 -17 -30 -25.5t-17.5 -21.5t-8.5 -25q0 -7 4.5 -15.5t9 -13.5t16 -16.5l15.5 -15.5l27 -28q53 -55 53 -133q0 -90 -50 -132.5t-136 -42.5q-22 0 -49.5 4t-43.5 8l-16 4l18 104q56 -17 92 -17q55 0 55 69q0 31 -26 62l-21 24q-53 61 -53 111
q0 23 12 48.5t21 37.5t32 39q46 54 46 109q0 43 -50 43q-31 0 -50.5 -20t-28.5 -71l-94 -535q-21 -117 -80 -158.5t-195 -41.5l16 97q63 4 91 28.5t38 79.5l92 520q17 100 71.5 147.5t153.5 47.5q76 0 121 -33.5t45 -92.5z" />
    <glyph glyph-name="agrave" unicode="&#xe0;" horiz-adv-x="502" 
d="M385 620h-112l-135 160h155zM530 530l-93 -530h-95l-10 67q-2 -3 -5 -8.5t-15 -18.5t-26 -23t-36.5 -18.5t-46.5 -8.5q-55 0 -93 39t-38 137q0 63 13 125t39.5 119.5t75.5 93.5t113 36q31 0 56 -9.5t35 -18.5l9 -10l37 28h80zM380 419q-24 17 -55 17q-33 0 -58 -30.5
t-38.5 -76.5t-20 -90.5t-6.5 -82.5q0 -65 36 -65q23 0 49 26.5t41 52.5l14 27z" />
    <glyph glyph-name="aacute" unicode="&#xe1;" horiz-adv-x="502" 
d="M584 780l-183 -160h-122l134 160h171zM530 530l-93 -530h-95l-10 67q-2 -3 -5 -8.5t-15 -18.5t-26 -23t-36.5 -18.5t-46.5 -8.5q-55 0 -93 39t-38 137q0 63 13 125t39.5 119.5t75.5 93.5t113 36q31 0 56 -9.5t35 -18.5l9 -10l37 28h80zM380 419q-24 17 -55 17
q-33 0 -58 -30.5t-38.5 -76.5t-20 -90.5t-6.5 -82.5q0 -65 36 -65q23 0 49 26.5t41 52.5l14 27z" />
    <glyph glyph-name="acircumflex" unicode="&#xe2;" horiz-adv-x="502" 
d="M545 620h-135l-38 72l-64 -72h-149l165 160h110zM530 530l-93 -530h-95l-10 67q-2 -3 -5 -8.5t-15 -18.5t-26 -23t-36.5 -18.5t-46.5 -8.5q-55 0 -93 39t-38 137q0 63 13 125t39.5 119.5t75.5 93.5t113 36q31 0 56 -9.5t35 -18.5l9 -10l37 28h80zM380 419q-24 17 -55 17
q-33 0 -58 -30.5t-38.5 -76.5t-20 -90.5t-6.5 -82.5q0 -65 36 -65q23 0 49 26.5t41 52.5l14 27z" />
    <glyph glyph-name="atilde" unicode="&#xe3;" horiz-adv-x="502" 
d="M534 759l-19 -109q-39 -26 -78 -26q-27 0 -74.5 23t-78.5 23q-18 0 -40.5 -7.5t-36.5 -14.5l-14 -8l19 110q43 28 92 28q36 0 82.5 -22t68.5 -22q14 0 33.5 6t32.5 12zM530 530l-93 -530h-95l-10 67q-2 -3 -5 -8.5t-15 -18.5t-26 -23t-36.5 -18.5t-46.5 -8.5
q-55 0 -93 39t-38 137q0 63 13 125t39.5 119.5t75.5 93.5t113 36q31 0 56 -9.5t35 -18.5l9 -10l37 28h80zM380 419q-24 17 -55 17q-33 0 -58 -30.5t-38.5 -76.5t-20 -90.5t-6.5 -82.5q0 -65 36 -65q23 0 49 26.5t41 52.5l14 27z" />
    <glyph glyph-name="adieresis" unicode="&#xe4;" horiz-adv-x="502" 
d="M538 690q0 -29 -20 -49.5t-49 -20.5t-49 20.5t-20 49.5t20 49.5t49 20.5t49 -20.5t20 -49.5zM349 690q0 -29 -20 -49.5t-49 -20.5t-49 20.5t-20 49.5t20 49.5t49 20.5t49 -20.5t20 -49.5zM530 530l-93 -530h-95l-10 67q-2 -3 -5 -8.5t-15 -18.5t-26 -23t-36.5 -18.5
t-46.5 -8.5q-55 0 -93 39t-38 137q0 63 13 125t39.5 119.5t75.5 93.5t113 36q31 0 56 -9.5t35 -18.5l9 -10l37 28h80zM380 419q-24 17 -55 17q-33 0 -58 -30.5t-38.5 -76.5t-20 -90.5t-6.5 -82.5q0 -65 36 -65q23 0 49 26.5t41 52.5l14 27z" />
    <glyph glyph-name="aring" unicode="&#xe5;" horiz-adv-x="502" 
d="M503 698q0 -65 -44.5 -101t-109.5 -36q-56 0 -88.5 28.5t-32.5 77.5q0 65 42 101.5t112 36.5q55 0 88 -29t33 -78zM530 530l-93 -530h-95l-10 67q-2 -3 -5 -8.5t-15 -18.5t-26 -23t-36.5 -18.5t-46.5 -8.5q-55 0 -93 39t-38 137q0 63 13 125t39.5 119.5t75.5 93.5t113 36
q31 0 56 -9.5t35 -18.5l9 -10l37 28h80zM410 695q0 39 -36 39q-25 0 -39 -17.5t-14 -43.5q0 -41 35 -41q26 0 40 18t14 45zM380 419q-24 17 -55 17q-33 0 -58 -30.5t-38.5 -76.5t-20 -90.5t-6.5 -82.5q0 -65 36 -65q23 0 49 26.5t41 52.5l14 27z" />
    <glyph glyph-name="ae" unicode="&#xe6;" horiz-adv-x="680" 
d="M715 388q0 -66 -40 -110.5t-99.5 -63.5t-138.5 -22v-9q0 -53 17.5 -71t56.5 -18q23 0 57.5 8.5t57.5 17.5l22 8l-19 -111q-64 -27 -137 -27q-117 0 -145 76q-27 -31 -67 -53.5t-79 -22.5q-25 0 -48 6t-47 21t-38.5 45t-14.5 72q0 95 58 148.5t152 53.5h66l9 50
q4 27 -10 39.5t-46 12.5q-22 0 -57 -7t-59 -14l-24 -7l18 102q74 28 160 28q34 0 64 -14.5t41 -38.5q44 53 131 53q75 0 117 -37.5t42 -114.5zM590 396q0 56 -44 56q-38 0 -65.5 -48t-37.5 -122q74 4 110.5 28.5t36.5 85.5zM315 257l-46 -1q-41 -1 -62.5 -33.5t-21.5 -79.5
q0 -28 14 -43t31 -15q28 0 45.5 20.5t21.5 45.5z" />
    <glyph glyph-name="ccedilla" unicode="&#xe7;" horiz-adv-x="355" 
d="M433 504l-18 -103q-46 35 -87 35q-33 0 -58.5 -29t-39 -71.5t-20 -81.5t-6.5 -68q0 -90 46 -90q21 0 50.5 8t48.5 16l19 9l-20 -114q-36 -16 -87 -22q39 -35 39 -79q0 -114 -137 -114q-22 0 -48 6t-41 12l-15 6l15 89q56 -20 82 -20q34 0 34 38q0 31 -23 69
q-95 36 -95 179q0 177 82 281q63 80 164 80q29 0 58 -9t43 -18z" />
    <glyph glyph-name="egrave" unicode="&#xe8;" horiz-adv-x="442" 
d="M375 620h-112l-135 160h155zM477 388q0 -66 -40 -110.5t-99.5 -63.5t-138.5 -22v-9q0 -53 17.5 -71t56.5 -18q23 0 57.5 8.5t57.5 17.5l22 8l-19 -111q-64 -27 -137 -27q-33 0 -59.5 5.5t-57 23t-48 58t-17.5 101.5q0 161 64 261.5t182 100.5q75 0 117 -37.5t42 -114.5z
M352 396q0 56 -44 56q-38 0 -65.5 -48t-37.5 -122q74 4 110.5 28.5t36.5 85.5z" />
    <glyph glyph-name="eacute" unicode="&#xe9;" horiz-adv-x="442" 
d="M564 780l-183 -160h-122l134 160h171zM477 388q0 -66 -40 -110.5t-99.5 -63.5t-138.5 -22v-9q0 -53 17.5 -71t56.5 -18q23 0 57.5 8.5t57.5 17.5l22 8l-19 -111q-64 -27 -137 -27q-33 0 -59.5 5.5t-57 23t-48 58t-17.5 101.5q0 161 64 261.5t182 100.5q75 0 117 -37.5
t42 -114.5zM352 396q0 56 -44 56q-38 0 -65.5 -48t-37.5 -122q74 4 110.5 28.5t36.5 85.5z" />
    <glyph glyph-name="ecircumflex" unicode="&#xea;" horiz-adv-x="442" 
d="M518 620h-135l-38 72l-64 -72h-149l165 160h110zM477 388q0 -66 -40 -110.5t-99.5 -63.5t-138.5 -22v-9q0 -53 17.5 -71t56.5 -18q23 0 57.5 8.5t57.5 17.5l22 8l-19 -111q-64 -27 -137 -27q-33 0 -59.5 5.5t-57 23t-48 58t-17.5 101.5q0 161 64 261.5t182 100.5
q75 0 117 -37.5t42 -114.5zM352 396q0 56 -44 56q-38 0 -65.5 -48t-37.5 -122q74 4 110.5 28.5t36.5 85.5z" />
    <glyph glyph-name="edieresis" unicode="&#xeb;" horiz-adv-x="442" 
d="M508 690q0 -29 -20 -49.5t-49 -20.5t-49 20.5t-20 49.5t20 49.5t49 20.5t49 -20.5t20 -49.5zM319 690q0 -29 -20 -49.5t-49 -20.5t-49 20.5t-20 49.5t20 49.5t49 20.5t49 -20.5t20 -49.5zM477 388q0 -66 -40 -110.5t-99.5 -63.5t-138.5 -22v-9q0 -53 17.5 -71t56.5 -18
q23 0 57.5 8.5t57.5 17.5l22 8l-19 -111q-64 -27 -137 -27q-33 0 -59.5 5.5t-57 23t-48 58t-17.5 101.5q0 161 64 261.5t182 100.5q75 0 117 -37.5t42 -114.5zM352 396q0 56 -44 56q-38 0 -65.5 -48t-37.5 -122q74 4 110.5 28.5t36.5 85.5z" />
    <glyph glyph-name="igrave" unicode="&#xec;" horiz-adv-x="260" 
d="M282 620h-112l-135 160h155zM288 530l-93 -530h-130l93 530h130z" />
    <glyph glyph-name="iacute" unicode="&#xed;" horiz-adv-x="260" 
d="M476 780l-183 -160h-122l134 160h171zM288 530l-93 -530h-130l93 530h130z" />
    <glyph glyph-name="icircumflex" unicode="&#xee;" horiz-adv-x="260" 
d="M419 620h-135l-38 72l-64 -72h-149l165 160h110zM288 530l-93 -530h-130l93 530h130z" />
    <glyph glyph-name="idieresis" unicode="&#xef;" horiz-adv-x="260" 
d="M410 690q0 -29 -20 -49.5t-49 -20.5t-49 20.5t-20 49.5t20 49.5t49 20.5t49 -20.5t20 -49.5zM221 690q0 -29 -20 -49.5t-49 -20.5t-49 20.5t-20 49.5t20 49.5t49 20.5t49 -20.5t20 -49.5zM288 530l-93 -530h-130l93 530h130z" />
    <glyph glyph-name="eth" unicode="&#xf0;" horiz-adv-x="490" 
d="M562 718l-15 -82l-74 -38q46 -76 46 -193q0 -108 -29.5 -206t-69.5 -139q-68 -70 -172 -70q-180 0 -180 181q0 74 21.5 138.5t73 110t124.5 45.5q23 0 42.5 -5.5t31.5 -12.5t20.5 -14.5t12.5 -12.5l3 -6q4 79 -27 131l-125 -65l14 82l61 32q-47 28 -123 28l17 98
q138 0 216 -70zM383 329q-3 5 -9 12t-26.5 18.5t-44.5 11.5q-39 0 -64 -33.5t-33 -74t-8 -85.5q0 -94 57 -94q48 0 78 49q31 49 50 196z" />
    <glyph glyph-name="ntilde" unicode="&#xf1;" horiz-adv-x="525" 
d="M554 759l-19 -109q-39 -26 -78 -26q-27 0 -74.5 23t-78.5 23q-18 0 -40.5 -7.5t-36.5 -14.5l-14 -8l19 110q43 28 92 28q36 0 82.5 -22t68.5 -22q14 0 33.5 6t32.5 12zM534 392l-69 -392h-130l64 366q6 27 2.5 44.5t-21.5 17.5q-27 0 -59 -28t-51 -56l-19 -29l-56 -315
h-130l93 530h102l7 -95q3 4 7.5 11t21.5 25.5t35.5 32t47.5 25t59 11.5q60 0 84 -41t12 -107z" />
    <glyph glyph-name="ograve" unicode="&#xf2;" horiz-adv-x="484" 
d="M385 620h-112l-135 160h155zM510 360q0 -91 -24 -172.5t-68 -130.5q-61 -67 -178 -67q-173 0 -173 193q0 82 27 164.5t76 132.5q59 60 167 60q74 0 123.5 -44t49.5 -136zM383 360q0 48 -13 68.5t-46 20.5q-35 0 -62 -31t-40 -77t-19 -86.5t-6 -72.5q0 -100 56 -100
q35 0 62.5 32.5t41 80.5t20 90.5t6.5 74.5z" />
    <glyph glyph-name="oacute" unicode="&#xf3;" horiz-adv-x="484" 
d="M584 780l-183 -160h-122l134 160h171zM510 360q0 -91 -24 -172.5t-68 -130.5q-61 -67 -178 -67q-173 0 -173 193q0 82 27 164.5t76 132.5q59 60 167 60q74 0 123.5 -44t49.5 -136zM383 360q0 48 -13 68.5t-46 20.5q-35 0 -62 -31t-40 -77t-19 -86.5t-6 -72.5
q0 -100 56 -100q35 0 62.5 32.5t41 80.5t20 90.5t6.5 74.5z" />
    <glyph glyph-name="ocircumflex" unicode="&#xf4;" horiz-adv-x="484" 
d="M529 620h-135l-38 72l-64 -72h-149l165 160h110zM510 360q0 -91 -24 -172.5t-68 -130.5q-61 -67 -178 -67q-173 0 -173 193q0 82 27 164.5t76 132.5q59 60 167 60q74 0 123.5 -44t49.5 -136zM383 360q0 48 -13 68.5t-46 20.5q-35 0 -62 -31t-40 -77t-19 -86.5t-6 -72.5
q0 -100 56 -100q35 0 62.5 32.5t41 80.5t20 90.5t6.5 74.5z" />
    <glyph glyph-name="otilde" unicode="&#xf5;" horiz-adv-x="484" 
d="M516 759l-19 -109q-39 -26 -78 -26q-27 0 -74.5 23t-78.5 23q-18 0 -40.5 -7.5t-36.5 -14.5l-14 -8l19 110q43 28 92 28q36 0 82.5 -22t68.5 -22q14 0 33.5 6t32.5 12zM510 360q0 -91 -24 -172.5t-68 -130.5q-61 -67 -178 -67q-173 0 -173 193q0 82 27 164.5t76 132.5
q59 60 167 60q74 0 123.5 -44t49.5 -136zM383 360q0 48 -13 68.5t-46 20.5q-35 0 -62 -31t-40 -77t-19 -86.5t-6 -72.5q0 -100 56 -100q35 0 62.5 32.5t41 80.5t20 90.5t6.5 74.5z" />
    <glyph glyph-name="odieresis" unicode="&#xf6;" horiz-adv-x="484" 
d="M518 690q0 -29 -20 -49.5t-49 -20.5t-49 20.5t-20 49.5t20 49.5t49 20.5t49 -20.5t20 -49.5zM329 690q0 -29 -20 -49.5t-49 -20.5t-49 20.5t-20 49.5t20 49.5t49 20.5t49 -20.5t20 -49.5zM510 360q0 -91 -24 -172.5t-68 -130.5q-61 -67 -178 -67q-173 0 -173 193
q0 82 27 164.5t76 132.5q59 60 167 60q74 0 123.5 -44t49.5 -136zM383 360q0 48 -13 68.5t-46 20.5q-35 0 -62 -31t-40 -77t-19 -86.5t-6 -72.5q0 -100 56 -100q35 0 62.5 32.5t41 80.5t20 90.5t6.5 74.5z" />
    <glyph glyph-name="divide" unicode="&#xf7;" horiz-adv-x="541" 
d="M455 563q0 -36 -24.5 -62t-60.5 -26t-61 26t-25 62t25 61.5t61 25.5t60.5 -25.5t24.5 -61.5zM555 393l-20 -115h-431l20 115h431zM375 109q0 -36 -24.5 -62t-60.5 -26t-61 26t-25 62t25 61.5t61 25.5t60.5 -25.5t24.5 -61.5z" />
    <glyph glyph-name="oslash" unicode="&#xf8;" horiz-adv-x="484" 
d="M537 640l-80 -141q53 -48 53 -139t-24 -172.5t-68 -130.5q-61 -67 -178 -67q-36 0 -66 9l-61 -109h-72l79 140q-53 48 -53 153q0 82 27 164.5t76 132.5q59 60 167 60q36 0 66 -10l62 110h72zM354 443q-12 6 -30 6q-35 0 -62 -31t-40 -77t-19 -86.5t-6 -72.5v-15zM383 360
v8l-157 -278q11 -8 27 -8q35 0 62.5 32.5t41 80.5t20 90.5t6.5 74.5z" />
    <glyph glyph-name="ugrave" unicode="&#xf9;" horiz-adv-x="515" 
d="M407 620h-112l-135 160h155zM543 530l-93 -530h-95l-9 87l-5.5 -10.5t-17 -23t-29 -29.5t-41 -23.5t-52.5 -10.5q-70 0 -98.5 45t-13.5 130l64 365h130l-64 -365q-12 -65 21 -65q28 0 57 28t45 56l15 29l56 317h130z" />
    <glyph glyph-name="uacute" unicode="&#xfa;" horiz-adv-x="515" 
d="M594 780l-183 -160h-122l134 160h171zM543 530l-93 -530h-95l-9 87l-5.5 -10.5t-17 -23t-29 -29.5t-41 -23.5t-52.5 -10.5q-70 0 -98.5 45t-13.5 130l64 365h130l-64 -365q-12 -65 21 -65q28 0 57 28t45 56l15 29l56 317h130z" />
    <glyph glyph-name="ucircumflex" unicode="&#xfb;" horiz-adv-x="515" 
d="M538 620h-135l-38 72l-64 -72h-149l165 160h110zM543 530l-93 -530h-95l-9 87l-5.5 -10.5t-17 -23t-29 -29.5t-41 -23.5t-52.5 -10.5q-70 0 -98.5 45t-13.5 130l64 365h130l-64 -365q-12 -65 21 -65q28 0 57 28t45 56l15 29l56 317h130z" />
    <glyph glyph-name="udieresis" unicode="&#xfc;" horiz-adv-x="515" 
d="M530 690q0 -29 -20 -49.5t-49 -20.5t-49 20.5t-20 49.5t20 49.5t49 20.5t49 -20.5t20 -49.5zM341 690q0 -29 -20 -49.5t-49 -20.5t-49 20.5t-20 49.5t20 49.5t49 20.5t49 -20.5t20 -49.5zM543 530l-93 -530h-95l-9 87l-5.5 -10.5t-17 -23t-29 -29.5t-41 -23.5
t-52.5 -10.5q-70 0 -98.5 45t-13.5 130l64 365h130l-64 -365q-12 -65 21 -65q28 0 57 28t45 56l15 29l56 317h130z" />
    <glyph glyph-name="yacute" unicode="&#xfd;" horiz-adv-x="425" 
d="M544 780l-183 -160h-122l134 160h171zM523 530l-219 -526q-47 -113 -117.5 -153.5t-208.5 -40.5l18 100q68 6 110.5 24.5t69.5 63.5l-88 532h152l12 -397l123 397h148z" />
    <glyph glyph-name="thorn" unicode="&#xfe;" 
d="M524 367q0 -72 -19 -150.5t-51 -129.5q-61 -97 -181 -97q-20 0 -39.5 4t-28.5 8l-9 5l-35 -197h-130l161 910h130l-45 -257q2 3 5 8.5t14.5 18.5t24.5 23t34.5 18.5t44.5 8.5q57 0 90.5 -38.5t33.5 -134.5zM395 365q0 74 -33 74q-23 0 -50.5 -27.5t-43.5 -55.5l-15 -28
l-40 -229q32 -13 55 -13q47 0 79 66q18 37 33 104t15 109z" />
    <glyph glyph-name="ydieresis" unicode="&#xff;" horiz-adv-x="425" 
d="M478 690q0 -29 -20 -49.5t-49 -20.5t-49 20.5t-20 49.5t20 49.5t49 20.5t49 -20.5t20 -49.5zM289 690q0 -29 -20 -49.5t-49 -20.5t-49 20.5t-20 49.5t20 49.5t49 20.5t49 -20.5t20 -49.5zM523 530l-219 -526q-47 -113 -117.5 -153.5t-208.5 -40.5l18 100q68 6 110.5 24.5
t69.5 63.5l-88 532h152l12 -397l123 397h148z" />
    <glyph glyph-name="dotlessi" unicode="&#x131;" horiz-adv-x="260" 
d="M288 530l-93 -530h-130l93 530h130z" />
    <glyph glyph-name="Lslash" unicode="&#x141;" horiz-adv-x="355" 
d="M385 565l-18 -98l-101 -64l-52 -294h155l-34 -109h-270l55 311l-56 -35l17 98l56 35l51 291h130l-35 -199z" />
    <glyph glyph-name="lslash" unicode="&#x142;" horiz-adv-x="250" 
d="M335 537l-18 -98l-56 -35l-71 -404h-130l55 311l-56 -35l17 98l56 35l55 311h130l-39 -218z" />
    <glyph glyph-name="OE" unicode="&#x152;" horiz-adv-x="600" 
d="M703 700l-29 -109h-165l-30 -171h155l-17 -98h-155l-38 -213h170l-19 -109h-267q-32 -10 -58 -10q-174 0 -174 209q0 102 29 220.5t75 190.5q38 58 83.5 79t109.5 21q24 0 54 -10h276zM382 611q-8 4 -21 4q-48 0 -78 -57q-30 -56 -54.5 -170t-24.5 -189q0 -62 14.5 -88
t43.5 -26l28 3z" />
    <glyph glyph-name="oe" unicode="&#x153;" horiz-adv-x="738" 
d="M773 388q0 -66 -40 -110.5t-99.5 -63.5t-138.5 -22v-9q0 -53 17.5 -71t56.5 -18q23 0 57.5 8.5t57.5 17.5l22 8l-19 -111q-64 -27 -137 -27q-102 0 -143 64q-58 -64 -167 -64q-173 0 -173 193q0 82 27 164.5t76 132.5q59 60 167 60q93 0 132 -65q54 65 145 65
q75 0 117 -37.5t42 -114.5zM648 396q0 56 -44 56q-38 0 -65.5 -48t-37.5 -122q74 4 110.5 28.5t36.5 85.5zM383 360q0 48 -13 68.5t-46 20.5q-35 0 -62 -31t-40 -77t-19 -86.5t-6 -72.5q0 -100 56 -100q35 0 62.5 32.5t41 80.5t20 90.5t6.5 74.5z" />
    <glyph glyph-name="Scaron" unicode="&#x160;" horiz-adv-x="390" 
d="M546 880l-162 -130h-118l-106 130h137l38 -62l64 62h147zM459 674l-18 -102q-56 34 -111 34q-43 0 -65.5 -25t-22.5 -69q0 -41 48 -93l40 -43q74 -80 74 -176q0 -210 -209 -210q-39 0 -79.5 9t-61.5 17l-20 9l19 108q85 -35 131 -35q87 0 87 100q0 44 -50 98l-37 39
q-73 77 -73 167q0 106 57 157t160 51q36 0 68.5 -9t47.5 -18z" />
    <glyph glyph-name="scaron" unicode="&#x161;" horiz-adv-x="354" 
d="M505 780l-167 -160h-110l-109 160h137l38 -72l64 72h147zM399 512l-17 -100q-46 26 -98 26q-67 0 -67 -55q0 -6 1.5 -11.5t2.5 -9.5t5 -9l5.5 -7t8 -7.5t8 -6.5t9.5 -7.5t10 -7.5l29 -22q64 -48 64 -130q0 -175 -187 -175q-34 0 -68.5 8t-52.5 16l-18 9l19 104
q72 -33 111 -33q67 0 67 62q0 18 -9 30t-31 29l-26 20q-22 17 -36 31.5t-27 43t-13 63.5q0 82 51.5 124.5t138.5 42.5q33 0 63 -7t44 -14z" />
    <glyph glyph-name="Ydieresis" unicode="&#x178;" horiz-adv-x="450" 
d="M528 820q0 -29 -20 -49.5t-49 -20.5t-49 20.5t-20 49.5t20 49.5t49 20.5t49 -20.5t20 -49.5zM319 820q0 -29 -20 -49.5t-49 -20.5t-49 20.5t-20 49.5t20 49.5t49 20.5t49 -20.5t20 -49.5zM583 700l-242 -412l-51 -288h-130l51 288l-98 412h148l30 -300l138 300h154z" />
    <glyph glyph-name="Zcaron" unicode="&#x17d;" horiz-adv-x="415" 
d="M554 880l-162 -130h-118l-106 130h137l38 -62l64 62h147zM498 700l-16 -96l-292 -500h208l-28 -104h-335l17 96l291 500h-203l18 104h340z" />
    <glyph glyph-name="zcaron" unicode="&#x17e;" horiz-adv-x="408" 
d="M524 780l-167 -160h-110l-109 160h137l38 -72l64 72h147zM463 530l-15 -90l-248 -338h191l-24 -102h-332l16 90l247 338h-188l18 102h335z" />
    <glyph glyph-name="florin" unicode="&#x192;" horiz-adv-x="360" 
d="M492 642l-18 -95q-53 24 -85 24q-53 0 -64 -55l-9 -46h100l-31 -91h-85l-64 -369q-21 -117 -80 -158.5t-195 -41.5l16 97q63 4 91 28.5t38 79.5l64 364h-70l16 91h70l8 42q16 88 61 123t121 35q29 0 58 -7t44 -14z" />
    <glyph glyph-name="circumflex" unicode="&#x2c6;" horiz-adv-x="426" 
d="M515 620h-135l-38 72l-64 -72h-149l165 160h110z" />
    <glyph glyph-name="caron" unicode="&#x2c7;" horiz-adv-x="426" 
d="M544 780l-167 -160h-110l-109 160h137l38 -72l64 72h147z" />
    <glyph glyph-name="breve" unicode="&#x2d8;" horiz-adv-x="398" 
d="M516 780q-18 -93 -64.5 -136.5t-138.5 -43.5q-90 0 -130.5 46t-24.5 134h117q-9 -49 2.5 -65.5t43.5 -16.5q29 0 48.5 17.5t27.5 64.5h119z" />
    <glyph glyph-name="dotaccent" unicode="&#x2d9;" horiz-adv-x="211" 
d="M313 693q0 -36 -24.5 -62t-60.5 -26t-61 26t-25 62t25 61.5t61 25.5t60.5 -25.5t24.5 -61.5z" />
    <glyph glyph-name="ring" unicode="&#x2da;" horiz-adv-x="310" 
d="M413 698q0 -65 -44.5 -101t-109.5 -36q-56 0 -88.5 28.5t-32.5 77.5q0 65 42 101.5t112 36.5q55 0 88 -29t33 -78zM320 695q0 39 -36 39q-25 0 -39 -17.5t-14 -43.5q0 -41 35 -41q26 0 40 18t14 45z" />
    <glyph glyph-name="ogonek" unicode="&#x2db;" horiz-adv-x="264" 
d="M229 -86l-16 -92q-54 -22 -102 -22q-109 0 -109 92q0 24 10 45t24.5 33.5t29 22t24.5 13.5l10 4h78q-7 -5 -17 -14t-26.5 -33t-16.5 -44q0 -26 28 -26q12 0 32.5 5.5t35.5 10.5z" />
    <glyph glyph-name="tilde" unicode="&#x2dc;" horiz-adv-x="360" 
d="M474 759l-19 -109q-39 -26 -78 -26q-27 0 -74.5 23t-78.5 23q-18 0 -40.5 -7.5t-36.5 -14.5l-14 -8l19 110q43 28 92 28q36 0 82.5 -22t68.5 -22q14 0 33.5 6t32.5 12z" />
    <glyph glyph-name="hungarumlaut" unicode="&#x2dd;" horiz-adv-x="414" 
d="M532 780l-133 -160h-102l97 160h138zM364 780l-133 -160h-102l97 160h138z" />
    <glyph glyph-name="endash" unicode="&#x2013;" horiz-adv-x="550" 
d="M563 385l-20 -115h-440l20 115h440z" />
    <glyph glyph-name="emdash" unicode="&#x2014;" horiz-adv-x="650" 
d="M663 385l-20 -115h-540l20 115h540z" />
    <glyph glyph-name="quoteleft" unicode="&#x2018;" horiz-adv-x="261" 
d="M340 730l-70 -305h-155l133 305h92z" />
    <glyph glyph-name="quoteright" unicode="&#x2019;" horiz-adv-x="261" 
d="M350 730l-133 -305h-92l70 305h155z" />
    <glyph glyph-name="quotesinglbase" unicode="&#x201a;" horiz-adv-x="261" 
d="M245 135l-133 -305h-92l70 305h155z" />
    <glyph glyph-name="quotedblleft" unicode="&#x201c;" horiz-adv-x="461" 
d="M540 730l-70 -305h-155l133 305h92zM340 730l-70 -305h-155l133 305h92z" />
    <glyph glyph-name="quotedblright" unicode="&#x201d;" horiz-adv-x="461" 
d="M550 730l-133 -305h-92l70 305h155zM350 730l-133 -305h-92l70 305h155z" />
    <glyph glyph-name="quotedblbase" unicode="&#x201e;" horiz-adv-x="461" 
d="M445 135l-133 -305h-92l70 305h155zM245 135l-133 -305h-92l70 305h155z" />
    <glyph glyph-name="dagger" unicode="&#x2020;" horiz-adv-x="490" 
d="M553 530l-20 -115h-145l-73 -415h-130l73 415h-155l20 115h155l34 190h130l-34 -190h145z" />
    <glyph glyph-name="daggerdbl" unicode="&#x2021;" horiz-adv-x="490" 
d="M555 540l-20 -115h-145l-23 -130h145l-20 -115h-145l-32 -180h-130l32 180h-155l20 115h155l23 130h-155l20 115h155l32 180h130l-32 -180h145z" />
    <glyph glyph-name="bullet" unicode="&#x2022;" horiz-adv-x="361" 
d="M363 378q0 -50 -32.5 -83.5t-82.5 -33.5t-83 33t-33 84t33 83.5t83 32.5q49 0 82 -33t33 -83z" />
    <glyph glyph-name="ellipsis" unicode="&#x2026;" horiz-adv-x="843" 
d="M793 78q0 -36 -24.5 -62t-60.5 -26t-61 26t-25 62t25 61.5t61 25.5t60.5 -25.5t24.5 -61.5zM522 78q0 -36 -24.5 -62t-60.5 -26t-61 26t-25 62t25 61.5t61 25.5t60.5 -25.5t24.5 -61.5zM251 78q0 -36 -24.5 -62t-60.5 -26t-61 26t-25 62t25 61.5t61 25.5t60.5 -25.5
t24.5 -61.5z" />
    <glyph glyph-name="perthousand" unicode="&#x2030;" horiz-adv-x="1156" 
d="M1167 216q0 -98 -46 -162t-136 -64q-67 0 -100 34.5t-33 108.5q0 97 46 162t136 65q133 0 133 -144zM812 216q0 -98 -46 -162t-136 -64q-67 0 -100 34.5t-33 108.5q0 97 46 162t136 65q133 0 133 -144zM722 710l-407 -720h-113l407 720h113zM427 566q0 -98 -46 -162
t-136 -64q-67 0 -100 34.5t-33 108.5q0 97 46 162t136 65q133 0 133 -144zM1060 229q0 32 -7 47t-26 15q-31 0 -49 -59t-18 -106q0 -65 34 -65q29 0 47.5 60.5t18.5 107.5zM705 229q0 32 -7 47t-26 15q-31 0 -49 -59t-18 -106q0 -65 34 -65q29 0 47.5 60.5t18.5 107.5z
M320 579q0 32 -7 47t-26 15q-31 0 -49 -59t-18 -106q0 -65 34 -65q29 0 47.5 60.5t18.5 107.5z" />
    <glyph glyph-name="guilsinglleft" unicode="&#x2039;" horiz-adv-x="260" 
d="M326 600l-34 -191l-95 -77l67 -81l-32 -181l-150 229l14 76z" />
    <glyph glyph-name="guilsinglright" unicode="&#x203a;" horiz-adv-x="260" 
d="M296 371l-14 -76l-230 -225l34 192l95 81l-67 77l32 180z" />
    <glyph glyph-name="fraction" unicode="&#x2044;" horiz-adv-x="209" 
d="M472 810l-527 -920h-84l527 920h84z" />
    <glyph glyph-name="trademark" unicode="&#x2122;" horiz-adv-x="755" 
d="M812 700l-58 -420h-107l42 242l-120 -163l-62 159l-46 -238h-109l71 329h-93l-58 -329h-109l58 329h-94l16 91h381l71 -178l131 178h86z" />
    <glyph glyph-name="minus" unicode="&#x2212;" horiz-adv-x="510" 
d="M523 385l-20 -115h-400l20 115h400z" />
    <glyph glyph-name="fi" unicode="&#xfb01;" horiz-adv-x="540" 
d="M568 530l-93 -530h-130l77 439h-140l-75 -429q-21 -117 -80 -158.5t-195 -41.5l16 97q63 4 91 28.5t38 79.5l75 424h-70l16 91h70l8 42q16 88 61 123t121 35q31 0 60 -7t42 -15l14 -7l-18 -95q-53 25 -85 25q-53 0 -64 -55l-9 -46h270z" />
    <glyph glyph-name="fl" unicode="&#xfb02;" horiz-adv-x="535" 
d="M602 720l-127 -720h-130l107 609q-55 22 -81 22q-53 0 -64 -55l-9 -46h90l-31 -91h-75l-75 -429q-21 -117 -80 -158.5t-195 -41.5l16 97q63 4 91 28.5t38 79.5l75 424h-70l16 91h70l8 42q16 88 61 123t121 35q55 0 112 -30z" />
    </font>
</defs>
</svg>
